<?xml version="1.0" encoding="UTF-8"?>
<svg version="1.1" xmlns="http://www.w3.org/2000/svg" width="567" height="567">
<path d="M0 0 C0.66397293 -0.00073013 1.32794586 -0.00146027 2.01203918 -0.00221252 C4.19336407 0.0012541 6.37251796 0.04006382 8.5534668 0.0793457 C10.07088555 0.08867731 11.58831943 0.09579178 13.10575867 0.1007843 C17.0895078 0.11982729 21.07233781 0.16890312 25.0557251 0.2243042 C29.12450732 0.27555598 33.19343883 0.29831089 37.26245117 0.32348633 C45.23878328 0.37702597 53.21436991 0.46230429 61.19018555 0.56762695 C61.23645624 11.48530724 61.27202788 22.40296434 61.29380989 33.32072258 C61.30426235 38.38987559 61.31844812 43.45896168 61.34106445 48.52807617 C61.36274083 53.4169188 61.37474315 58.30569693 61.37994003 63.19458389 C61.38364517 65.06296937 61.39088004 66.93135118 61.40164566 68.79970932 C61.41609149 71.40976435 61.41816641 74.01955033 61.41723633 76.62963867 C61.42442688 77.40791016 61.43161743 78.18618164 61.43902588 78.98803711 C61.41828987 84.33952263 61.41828987 84.33952263 59.19018555 86.56762695 C56.76795959 86.81486511 56.76795959 86.81486511 53.68652344 86.81054688 C52.53515396 86.8136235 51.38378448 86.81670013 50.19752502 86.81987 C48.94857956 86.81268448 47.69963409 86.80549896 46.4128418 86.7980957 C44.49670326 86.79740837 44.49670326 86.79740837 42.54185486 86.79670715 C39.8357118 86.79368108 37.12990706 86.78685114 34.42382812 86.7734375 C30.95576183 86.75646458 27.48784115 86.75262269 24.0197382 86.75338268 C20.71325834 86.75304522 17.40680898 86.74420443 14.1003418 86.7355957 C12.85342056 86.73448288 11.60649933 86.73337006 10.3217926 86.73222351 C9.16727097 86.72584366 8.01274933 86.71946381 6.82324219 86.71289062 C5.80557266 86.70907883 4.78790314 86.70526703 3.73939514 86.70133972 C1.19018555 86.56762695 1.19018555 86.56762695 -1.80981445 85.56762695 C-1.80981445 86.55762695 -1.80981445 87.54762695 -1.80981445 88.56762695 C-0.69606445 88.54700195 0.41768555 88.52637695 1.56518555 88.50512695 C5.19018555 88.56762695 5.19018555 88.56762695 7.19018555 89.56762695 C7.19018555 88.90762695 7.19018555 88.24762695 7.19018555 87.56762695 C10.82018555 87.56762695 14.45018555 87.56762695 18.19018555 87.56762695 C18.19018555 88.22762695 18.19018555 88.88762695 18.19018555 89.56762695 C19.67518555 90.06262695 19.67518555 90.06262695 21.19018555 90.56762695 C21.19018555 89.90762695 21.19018555 89.24762695 21.19018555 88.56762695 C33.87219209 87.63683748 46.47655827 87.45577686 59.19018555 87.56762695 C59.25077148 88.2430957 59.31135742 88.91856445 59.3737793 89.61450195 C59.45756836 90.5065332 59.54135742 91.39856445 59.62768555 92.31762695 C59.74950195 93.64020508 59.74950195 93.64020508 59.8737793 94.98950195 C60.1530924 97.26538647 60.61225216 99.35461511 61.19018555 101.56762695 C52.54086471 101.63719338 43.89164047 101.69047181 35.24210072 101.72306347 C31.22559018 101.7387073 27.20927132 101.75992188 23.19287109 101.79394531 C19.31548368 101.82658492 15.43828043 101.84448962 11.56076622 101.85225868 C10.08280222 101.85779397 8.60484809 101.86860314 7.12696266 101.88481712 C5.05382272 101.90665336 2.9814399 101.90959141 0.90820312 101.90820312 C-0.86051399 101.91819588 -0.86051399 101.91819588 -2.66496277 101.9283905 C-6.14733855 101.52890767 -8.02112412 100.65490961 -10.80981445 98.56762695 C-12.44706719 95.29312149 -11.9843372 91.66665165 -12.00268555 88.06640625 C-12.01086304 87.18657074 -12.01904053 86.30673523 -12.02746582 85.40023804 C-12.05233308 82.4807809 -12.06883879 79.56137241 -12.08325195 76.6418457 C-12.08857563 75.64595743 -12.09389931 74.65006916 -12.09938431 73.62400246 C-12.12612104 68.3533467 -12.14549471 63.08271468 -12.15991211 57.81201172 C-12.17656584 52.36421003 -12.22134836 46.91701259 -12.27228355 41.46943951 C-12.30591585 37.28385207 -12.31748512 33.09840879 -12.32313919 28.91269875 C-12.32986224 26.90441072 -12.34511154 24.89613253 -12.36903 22.88797569 C-12.40059971 20.07715777 -12.40073076 17.26797944 -12.39331055 14.45703125 C-12.40971588 13.62723251 -12.42612122 12.79743378 -12.44302368 11.94248962 C-12.39853716 7.82635582 -12.12057116 6.01224286 -9.69895935 2.54751587 C-6.16584776 0.12632596 -4.2592703 -0.03951086 0 0 Z M32.19018555 91.56762695 C32.19018555 92.22762695 32.19018555 92.88762695 32.19018555 93.56762695 C33.51018555 93.23762695 34.83018555 92.90762695 36.19018555 92.56762695 C34.87018555 92.23762695 33.55018555 91.90762695 32.19018555 91.56762695 Z M14.19018555 92.56762695 C14.19018555 92.89762695 14.19018555 93.22762695 14.19018555 93.56762695 C17.49018555 93.56762695 20.79018555 93.56762695 24.19018555 93.56762695 C24.19018555 93.23762695 24.19018555 92.90762695 24.19018555 92.56762695 C20.89018555 92.56762695 17.59018555 92.56762695 14.19018555 92.56762695 Z M8.19018555 94.56762695 C8.19018555 95.22762695 8.19018555 95.88762695 8.19018555 96.56762695 C10.17018555 96.56762695 12.15018555 96.56762695 14.19018555 96.56762695 C14.19018555 95.57762695 14.19018555 94.58762695 14.19018555 93.56762695 C11.13748092 93.40951307 11.13748092 93.40951307 8.19018555 94.56762695 Z M35.19018555 94.56762695 C35.19018555 95.22762695 35.19018555 95.88762695 35.19018555 96.56762695 C36.79397896 96.62178883 38.39829961 96.66049333 40.00268555 96.69262695 C40.89600586 96.71583008 41.78932617 96.7390332 42.7097168 96.76293945 C45.44421269 96.75048522 45.44421269 96.75048522 48.19018555 94.56762695 C43.90018555 94.56762695 39.61018555 94.56762695 35.19018555 94.56762695 Z " fill="#2F78B9" transform="translate(106.809814453125,232.432373046875)"/>
<path d="M0 0 C14.85 0 29.7 0 45 0 C45.04010881 19.63549044 45.04010881 19.63549044 45.04882812 27.984375 C45.05481347 33.68848598 45.06190558 39.39258097 45.07543945 45.09667969 C45.08627885 49.6937439 45.09227908 54.29079097 45.09487724 58.88786697 C45.09672958 60.64460139 45.10034657 62.40133484 45.10573006 64.15806198 C45.11295443 66.61239424 45.11399035 69.06665497 45.11352539 71.52099609 C45.11712067 72.25251389 45.12071594 72.98403168 45.12442017 73.73771667 C45.11405216 78.77189568 45.11405216 78.77189568 44 81 C35.24806902 81.61729921 28.3022036 81.25817906 21 76 C20.34 75.01 19.68 74.02 19 73 C17.8553125 72.319375 17.8553125 72.319375 16.6875 71.625 C11.81692682 68.68000226 8.71701676 64.94003046 6 60 C5.525625 59.236875 5.05125 58.47375 4.5625 57.6875 C-1.29306032 47.61593624 -3.38763455 39.71517738 -3 28 C-4.65 28 -6.3 28 -8 28 C-8 22.06 -8 16.12 -8 10 C-6.02 9.67 -4.04 9.34 -2 9 C-1.34 6.03 -0.68 3.06 0 0 Z " fill="#3597D4" transform="translate(123,233)"/>
<path d="M0 0 C5.57562257 3.37158373 7.81164649 9.31436542 9.375 15.4375 C9.68351452 19.99595948 9.00961695 23.0067615 7.0625 27.125 C6.63324219 28.05699219 6.20398438 28.98898437 5.76171875 29.94921875 C2.70951714 35.42598614 -1.78643064 37.55075974 -7.625 39.4375 C-10.39943884 39.73508832 -12.825504 39.64109971 -15.625 39.4375 C-15.625 38.7775 -15.625 38.1175 -15.625 37.4375 C-16.65625 37.355 -17.6875 37.2725 -18.75 37.1875 C-23.09308655 36.3469026 -25.28552853 35.321589 -28.625 32.4375 C-32.9610088 25.9334868 -32.4743296 17.98346679 -31.625 10.4375 C-30.08373452 5.67099379 -27.4133701 2.58207677 -23.1875 -0.0625 C-16.20211192 -3.03162131 -6.96375637 -3.01241146 0 0 Z M-18.625 10.4375 C-20.99117549 13.36705061 -21.11370738 16.76347359 -20.99609375 20.46484375 C-20.69947439 22.74970983 -20.69947439 22.74970983 -18.625 25.4375 C-14.46937903 28.20791398 -12.55832128 28.14226018 -7.625 27.4375 C-4.91941138 26.23254081 -4.91941138 26.23254081 -3.625 23.4375 C-2.99152923 19.05417356 -2.66250062 15.08831497 -4.94140625 11.1796875 C-8.69129986 7.29928716 -14.26375692 7.82075415 -18.625 10.4375 Z " fill="#171717" transform="translate(437.625,264.5625)"/>
<path d="M0 0 C3.63 0 7.26 0 11 0 C11.61875 1.670625 11.61875 1.670625 12.25 3.375 C15.76313271 12.84408125 15.76313271 12.84408125 20 22 C20.40992188 20.83082031 20.81984375 19.66164063 21.2421875 18.45703125 C21.78640215 16.90883441 22.3306761 15.36065843 22.875 13.8125 C23.14441406 13.04357422 23.41382813 12.27464844 23.69140625 11.48242188 C23.95566406 10.73154297 24.21992188 9.98066406 24.4921875 9.20703125 C24.85352783 8.17799683 24.85352783 8.17799683 25.22216797 7.12817383 C26.09757365 4.7330353 27.05291564 2.36771089 28 0 C31.63 0 35.26 0 39 0 C38.18507504 13.31044102 31.901294 26.746765 27 39 C22.05 39 17.1 39 12 39 C11.2575 36.73125 10.515 34.4625 9.75 32.125 C8.25224739 27.58717203 6.69937673 23.10701727 4.875 18.6875 C2.377932 12.60724093 0 6.62014816 0 0 Z " fill="#181818" transform="translate(279,263)"/>
<path d="M0 0 C8.58 0 17.16 0 26 0 C26 3.3 26 6.6 26 10 C21.05 10 16.1 10 11 10 C11 11.65 11 13.3 11 15 C15.29 15 19.58 15 24 15 C24 18.3 24 21.6 24 25 C19.71 25 15.42 25 11 25 C11 26.65 11 28.3 11 30 C15.95 30 20.9 30 26 30 C26 32.97 26 35.94 26 39 C17.42 39 8.84 39 0 39 C0 26.13 0 13.26 0 0 Z " fill="#181818" transform="translate(324,263)"/>
<path d="M0 0 C8.58 0 17.16 0 26 0 C26 3.3 26 6.6 26 10 C21.05 10 16.1 10 11 10 C11 11.65 11 13.3 11 15 C15.29 15 19.58 15 24 15 C24 18.3 24 21.6 24 25 C19.71 25 15.42 25 11 25 C11 26.65 11 28.3 11 30 C11.99902344 29.98839844 12.99804688 29.97679687 14.02734375 29.96484375 C15.31769531 29.95582031 16.60804688 29.94679688 17.9375 29.9375 C19.22527344 29.92589844 20.51304687 29.91429687 21.83984375 29.90234375 C25 30 25 30 26 31 C26 33.64 26 36.28 26 39 C17.42 39 8.84 39 0 39 C0 26.13 0 13.26 0 0 Z " fill="#191919" transform="translate(248,263)"/>
<path d="M0 0 C14.52 0 29.04 0 44 0 C44 5.94 44 11.88 44 18 C29.48 18 14.96 18 0 18 C0 12.06 0 6.12 0 0 Z " fill="#40B4E8" transform="translate(115,243)"/>
<path d="M0 0 C0.90535835 10.11486297 1.07366657 20.0959648 0.87890625 30.2421875 C0.85452392 31.74674642 0.83068488 33.25131424 0.80735779 34.75588989 C0.74532183 38.6652053 0.67603938 42.57435784 0.60510254 46.48352051 C0.5336792 50.49284618 0.46930934 54.50228491 0.40429688 58.51171875 C0.2763265 66.34127109 0.14067924 74.17066458 0 82 C-0.61875 82.103125 -1.2375 82.20625 -1.875 82.3125 C-4.36526484 82.87525373 -4.36526484 82.87525373 -6 86 C-6.66 86 -7.32 86 -8 86 C-9.19999566 82.22548115 -9.16894067 78.4766367 -9.19287109 74.55688477 C-9.20104858 73.81330719 -9.20922607 73.06972961 -9.21765137 72.30361938 C-9.24241066 69.8495564 -9.25899348 67.39555072 -9.2734375 64.94140625 C-9.27876118 64.10180799 -9.28408485 63.26220974 -9.28956985 62.39716911 C-9.31625525 57.9564391 -9.33564822 53.51573681 -9.35009766 49.07495117 C-9.36345677 45.40152191 -9.39135153 41.72864553 -9.43212891 38.05541992 C-9.48140924 33.61574852 -9.50621207 29.17657989 -9.51332474 24.73664665 C-9.5200399 23.04653365 -9.53526901 21.35643199 -9.55921555 19.6664753 C-9.59082973 17.30122372 -9.59091106 14.93791706 -9.58349609 12.57250977 C-9.59990143 11.87676346 -9.61630676 11.18101715 -9.63320923 10.46418762 C-9.58471722 6.68098931 -9.04700504 5.0611245 -6.71353149 2.02671814 C-4 0 -4 0 0 0 Z " fill="#3279B9" transform="translate(104,233)"/>
<path d="M0 0 C2.12534659 0.14069196 4.25027529 0.28770921 6.375 0.4375 C8.15003906 0.55931641 8.15003906 0.55931641 9.9609375 0.68359375 C13 1 13 1 15 2 C15 1.34 15 0.68 15 0 C18.63 0 22.26 0 26 0 C26 0.66 26 1.32 26 2 C26.99 2.33 27.98 2.66 29 3 C29 2.34 29 1.68 29 1 C41.68200655 0.06921053 54.28637273 -0.11185009 67 0 C67.495 5.445 67.495 5.445 68 11 C64.58312217 11.0539507 61.16709636 11.09365049 57.75 11.125 C56.29787109 11.15013672 56.29787109 11.15013672 54.81640625 11.17578125 C53.41455078 11.18544922 53.41455078 11.18544922 51.984375 11.1953125 C51.12553711 11.20578613 50.26669922 11.21625977 49.38183594 11.22705078 C47 11 47 11 43 9 C46.3 8.67 49.6 8.34 53 8 C50.03 7.67 47.06 7.34 44 7 C44 6.34 44 5.68 44 5 C39.545 5.495 39.545 5.495 35 6 C35 6.66 35 7.32 35 8 C37.31 8.66 39.62 9.32 42 10 C42 10.33 42 10.66 42 11 C36.8222407 11.09908128 31.64503653 11.17156806 26.46655273 11.21972656 C24.70603825 11.23980786 22.94559018 11.26707879 21.18530273 11.30175781 C18.65071198 11.35043112 16.11700505 11.37300305 13.58203125 11.390625 C12.79850784 11.41127014 12.01498444 11.43191528 11.2077179 11.45318604 C7.47990342 11.45470721 5.21514627 11.12765658 1.9831543 9.20996094 C0 7 0 7 -0.3125 3.25 C-0.209375 2.1775 -0.10625 1.105 0 0 Z M16 7 C16 7.66 16 8.32 16 9 C17.98 9 19.96 9 22 9 C22 8.01 22 7.02 22 6 C18.94729537 5.84188612 18.94729537 5.84188612 16 7 Z " fill="#8FACC9" transform="translate(99,320)"/>
<path d="M0 0 C3.96 0 7.92 0 12 0 C12 9.9 12 19.8 12 30 C15.96 30 19.92 30 24 30 C24 32.97 24 35.94 24 39 C16.08 39 8.16 39 0 39 C0 26.13 0 13.26 0 0 Z " fill="#161616" transform="translate(357,263)"/>
<path d="M0 0 C3.63 0 7.26 0 11 0 C11 9.9 11 19.8 11 30 C14.96 30 18.92 30 23 30 C23 32.97 23 35.94 23 39 C15.08 39 7.16 39 -1 39 C-1.02290785 33.60647411 -1.04283526 28.21311579 -1.05493164 22.81958008 C-1.05997231 20.98331125 -1.06680477 19.14704646 -1.07543945 17.31079102 C-1.08751672 14.67723599 -1.09323081 12.04373384 -1.09765625 9.41015625 C-1.10281754 8.58411392 -1.10797882 7.75807159 -1.11329651 6.90699768 C-1.11349205 4.93763632 -1.06204152 2.96838386 -1 1 C-0.67 0.67 -0.34 0.34 0 0 Z " fill="#191919" transform="translate(219,263)"/>
<path d="M0 0 C0.33 0.66 0.66 1.32 1 2 C2.82035767 1.99214478 2.82035767 1.99214478 4.67749023 1.98413086 C9.26423376 1.96576337 13.85097418 1.9544544 18.43774414 1.94506836 C20.40715078 1.94009956 22.37655385 1.93332222 24.34594727 1.92456055 C36.60620527 1.87145879 48.77093125 2.09478561 61 3 C60.67 3.99 60.34 4.98 60 6 C52.48955919 6.02316465 44.97912207 6.04093616 37.46865368 6.05181217 C33.98128689 6.05703196 30.49394453 6.06411324 27.0065918 6.07543945 C22.99788172 6.08837754 18.98919733 6.09323569 14.98046875 6.09765625 C13.72727341 6.10281754 12.47407806 6.10797882 11.1829071 6.11329651 C9.44144157 6.11340981 9.44144157 6.11340981 7.66479492 6.11352539 C6.64109299 6.115746 5.61739105 6.11796661 4.56266785 6.12025452 C2 6 2 6 -1 5 C-1 5.99 -1 6.98 -1 8 C-3.97 7.505 -3.97 7.505 -7 7 C-6.77606592 11.75046681 -6.77606592 11.75046681 -4.46972656 15.7121582 C-0.94623081 17.54948917 2.39038732 17.37121962 6.265625 17.29296875 C7.05902283 17.28872391 7.85242065 17.28447906 8.66986084 17.28010559 C11.1969232 17.2633504 13.72317983 17.22570506 16.25 17.1875 C17.96613429 17.17244903 19.68228112 17.15876134 21.3984375 17.14648438 C25.59926746 17.11345735 29.79949725 17.06169765 34 17 C32.329375 16.5978125 32.329375 16.5978125 30.625 16.1875 C27 15 27 15 25 12 C33.57142857 11.71428571 33.57142857 11.71428571 37 14 C36.67 14.99 36.34 15.98 36 17 C48.87 17.495 48.87 17.495 62 18 C62 18.99 62 19.98 62 21 C53.35067917 21.06956643 44.70145492 21.12284485 36.05191517 21.15543652 C32.03540464 21.17108035 28.01908578 21.19229492 24.00268555 21.22631836 C20.12529814 21.25895797 16.24809488 21.27686267 12.37058067 21.28463173 C10.89261667 21.29016701 9.41466254 21.30097619 7.93677711 21.31719017 C5.86363718 21.33902641 3.79125436 21.34196446 1.71801758 21.34057617 C-0.05069954 21.35056892 -0.05069954 21.35056892 -1.85514832 21.36076355 C-5.3375241 20.96128072 -7.21130967 20.08728265 -10 18 C-11.50156874 14.99686252 -11.09281204 12.20932478 -11.0625 8.875 C-11.05347656 7.59367187 -11.04445313 6.31234375 -11.03515625 4.9921875 C-11.02355469 4.00476563 -11.01195313 3.01734375 -11 2 C-10.34 2.66 -9.68 3.32 -9 4 C-9.33 4.66 -9.66 5.32 -10 6 C-9.46375 5.38125 -8.9275 4.7625 -8.375 4.125 C-5.68896977 1.7217098 -3.44585438 0.93977847 0 0 Z " fill="#36659B" transform="translate(106,313)"/>
<path d="M0 0 C0.99 0.33 1.98 0.66 3 1 C3 46.54 3 92.08 3 139 C1.68 139 0.36 139 -1 139 C-1.02332821 121.02430767 -1.04097879 103.04861926 -1.05181217 85.07291508 C-1.0569753 76.72707171 -1.06401831 68.38123773 -1.07543945 60.03540039 C-1.08538579 52.7638123 -1.09185331 45.49223101 -1.09408849 38.22063631 C-1.09539569 34.36800479 -1.09848208 30.51539272 -1.10573006 26.66276741 C-1.11248948 23.04067328 -1.11461712 19.41860672 -1.11310768 15.79650688 C-1.11351637 13.82502772 -1.11891197 11.85355159 -1.12442017 9.88208008 C-1.1230455 8.71955215 -1.12167084 7.55702423 -1.12025452 6.35926819 C-1.12117631 5.34253053 -1.1220981 4.32579287 -1.12304783 3.27824497 C-1 1 -1 1 0 0 Z " fill="#2D2D2F" transform="translate(191,214)"/>
<path d="M0 0 C0.99 0 1.98 0 3 0 C4.02514801 25.65836692 4.50601288 51.32696507 5 77 C5.66 75.35 6.32 73.7 7 72 C12.61 72 18.22 72 24 72 C24 72.66 24 73.32 24 74 C19.05 74.495 19.05 74.495 14 75 C17.96 75.33 21.92 75.66 26 76 C26 76.66 26 77.32 26 78 C25.01 78 24.02 78 23 78 C23.495 78.99 23.495 78.99 24 80 C43.305 80.495 43.305 80.495 63 81 C63.33 80.34 63.66 79.68 64 79 C64 80.65 64 82.3 64 84 C62.44140259 83.90150757 62.44140259 83.90150757 60.85131836 83.80102539 C48.42559 83.0467445 36.00719734 82.6966103 23.5625 82.4375 C21.59830138 82.39414702 19.63410861 82.35052851 17.66992188 82.30664062 C14.11404588 82.22816793 10.55816089 82.15033335 7.00219727 82.07592773 C6.29926041 82.06117905 5.59632355 82.04643036 4.87208557 82.03123474 C3.24824967 82.00414191 1.6240619 82 0 82 C0 54.94 0 27.88 0 0 Z " fill="#2C6FAF" transform="translate(104,233)"/>
<path d="M0 0 C3.96 0 7.92 0 12 0 C12 12.87 12 25.74 12 39 C8.04 39 4.08 39 0 39 C0 26.13 0 13.26 0 0 Z " fill="#161616" transform="translate(387,263)"/>
<path d="M0 0 C0.99 0.33 1.98 0.66 3 1 C3 26.41 3 51.82 3 78 C2.67 78 2.34 78 2 78 C1.67 68.1 1.34 58.2 1 48 C0.67 53.28 0.34 58.56 0 64 C-0.33 64 -0.66 64 -1 64 C-1.0231271 55.80309439 -1.04091696 47.60620232 -1.05181217 39.40927219 C-1.0570402 35.60348423 -1.06413638 31.79771852 -1.07543945 27.99194336 C-1.0862712 24.32207456 -1.09227744 20.65222722 -1.09487724 16.98234367 C-1.09673097 15.57925008 -1.1003506 14.17615771 -1.10573006 12.7730732 C-1.11294419 10.8143032 -1.11340809 8.8555118 -1.11352539 6.89672852 C-1.115746 5.77976089 -1.11796661 4.66279327 -1.12025452 3.51197815 C-1 1 -1 1 0 0 Z " fill="#3B3D40" transform="translate(191,214)"/>
<path d="M0 0 C0.99 0 1.98 0 3 0 C3.0694096 10.39612017 3.12276514 20.79218552 3.15543652 31.18848991 C3.17111454 36.01555419 3.1923916 40.84246034 3.22631836 45.66943359 C3.25883589 50.3248666 3.2768369 54.98014719 3.28463173 59.63568497 C3.29018896 61.41476975 3.30104043 63.19384589 3.31719017 64.97286606 C3.33886371 67.45849603 3.34197121 69.94349047 3.34057617 72.42919922 C3.35675491 73.54050201 3.35675491 73.54050201 3.3732605 74.67425537 C3.36076355 76.72238159 3.36076355 76.72238159 3 80 C1.515 80.99 1.515 80.99 0 82 C0 54.94 0 27.88 0 0 Z " fill="#2767A7" transform="translate(104,233)"/>
<path d="M0 0 C0.33 0 0.66 0 1 0 C2.3173767 7.96649849 2.11089426 15.95194375 2.0625 24 C2.05747576 25.45702971 2.05291449 26.9140611 2.04882812 28.37109375 C2.03789388 31.9140977 2.02068 35.45703797 2 39 C0.68 39 -0.64 39 -2 39 C-2.02933699 34.54168078 -2.04691123 30.08338682 -2.0625 25.625 C-2.07087891 24.37332031 -2.07925781 23.12164062 -2.08789062 21.83203125 C-2.1258135 7.34549425 -2.1258135 7.34549425 -1 1 C-0.67 0.67 -0.34 0.34 0 0 Z " fill="#18191F" transform="translate(192,314)"/>
<path d="M0 0 C3.63 0 7.26 0 11 0 C11 0.66 11 1.32 11 2 C11.99 2.33 12.98 2.66 14 3 C14 2.34 14 1.68 14 1 C19.61 1 25.22 1 31 1 C31 1.66 31 2.32 31 3 C30.34 3 29.68 3 29 3 C29 3.66 29 4.32 29 5 C24.73027701 5.25446319 20.45946347 5.47423855 16.1875 5.6875 C14.97255859 5.76033203 13.75761719 5.83316406 12.50585938 5.90820312 C11.34248047 5.96298828 10.17910156 6.01777344 8.98046875 6.07421875 C7.90692139 6.13182373 6.83337402 6.18942871 5.72729492 6.2487793 C3 6 3 6 1.1262207 4.68286133 C0 3 0 3 0 0 Z " fill="#86A0BB" transform="translate(114,320)"/>
<path d="M0 0 C0 4.62 0 9.24 0 14 C-2.97 14 -5.94 14 -9 14 C-9.6097102 5.82988333 -9.6097102 5.82988333 -6.75 1.9375 C-4 0 -4 0 0 0 Z " fill="#2F79BC" transform="translate(104,233)"/>
<path d="M0 0 C8.57142857 -0.28571429 8.57142857 -0.28571429 12 2 C11.67 2.99 11.34 3.98 11 5 C18.92 5.33 26.84 5.66 35 6 C35 6.33 35 6.66 35 7 C14.54 7 -5.92 7 -27 7 C-27 6.67 -27 6.34 -27 6 C-15.12 5.67 -3.24 5.34 9 5 C6.69 4.34 4.38 3.68 2 3 C1.34 2.01 0.68 1.02 0 0 Z " fill="#406FA9" transform="translate(131,325)"/>
<path d="M0 0 C4.29 0 8.58 0 13 0 C13 0.66 13 1.32 13 2 C15.31 2.66 17.62 3.32 20 4 C20 4.33 20 4.66 20 5 C9.77 5 -0.46 5 -11 5 C-9.68 4.67 -8.36 4.34 -7 4 C-6.67 3.34 -6.34 2.68 -6 2 C-4.35 2 -2.7 2 -1 2 C-0.67 1.34 -0.34 0.68 0 0 Z " fill="#6D98CE" transform="translate(121,326)"/>
<path d="M0 0 C1.98 0 3.96 0 6 0 C5.67 5.94 5.34 11.88 5 18 C3.35 18 1.7 18 0 18 C0 12.06 0 6.12 0 0 Z " fill="#36A1DB" transform="translate(115,243)"/>
<path d="M0 0 C0.99 0 1.98 0 3 0 C3 9.9 3 19.8 3 30 C2.67 30 2.34 30 2 30 C1.67 27.69 1.34 25.38 1 23 C0.67 26.3 0.34 29.6 0 33 C-0.33 33 -0.66 33 -1 33 C-1.14659011 21.95687814 -0.7068249 11.01889539 0 0 Z " fill="#2A3335" transform="translate(191,292)"/>
<path d="M0 0 C2.97 0 5.94 0 9 0 C9 2.64 9 5.28 9 8 C6.03 8 3.06 8 0 8 C0 5.36 0 2.72 0 0 Z " fill="#379FDA" transform="translate(95,247)"/>
<path d="M0 0 C0.99 0.33 1.98 0.66 3 1 C3.10808032 8.09727428 2.93854006 14.96094956 2 22 C-0.61062213 19.43746828 -1.22273514 17.46831753 -1.328125 13.92578125 C-1.31754585 12.38783673 -1.29103242 10.84993345 -1.25 9.3125 C-1.24484375 8.52810547 -1.2396875 7.74371094 -1.234375 6.93554688 C-1.15442868 1.15442868 -1.15442868 1.15442868 0 0 Z " fill="#212121" transform="translate(191,214)"/>
<path d="M0 0 C0.33 1.32 0.66 2.64 1 4 C-2.41659491 4.05816623 -5.83306205 4.09365195 -9.25 4.125 C-10.70212891 4.15013672 -10.70212891 4.15013672 -12.18359375 4.17578125 C-13.58544922 4.18544922 -13.58544922 4.18544922 -15.015625 4.1953125 C-15.87446289 4.20578613 -16.73330078 4.21625977 -17.61816406 4.22705078 C-20.17903596 3.98293323 -21.79511029 3.28990512 -24 2 C-15.92437827 0.56205146 -8.2056037 -0.29599372 0 0 Z " fill="#7D9AC2" transform="translate(166,327)"/>
<path d="M0 0 C0 0.99 0 1.98 0 3 C-10.23 3 -20.46 3 -31 3 C-31 2.67 -31 2.34 -31 2 C-25.12147682 0.79388921 -19.22745947 0.66397517 -13.25 0.4375 C-12.19683594 0.39431641 -11.14367187 0.35113281 -10.05859375 0.30664062 C-2.47532242 0 -2.47532242 0 0 0 Z " fill="#386196" transform="translate(168,331)"/>
<path d="M0 0 C0.33 0.66 0.66 1.32 1 2 C3.97 2 6.94 2 10 2 C10 2.33 10 2.66 10 3 C11.65 3.33 13.3 3.66 15 4 C15 4.66 15 5.32 15 6 C12.91695462 6.05418326 10.83350232 6.09287551 8.75 6.125 C7.00976562 6.15980469 7.00976562 6.15980469 5.234375 6.1953125 C2.17213954 6.0103949 0.55797249 5.60823023 -2 4 C-1.34 2.68 -0.68 1.36 0 0 Z " fill="#37649A" transform="translate(106,313)"/>
<path d="M0 0 C0.33 0 0.66 0 1 0 C1 3.96 1 7.92 1 12 C-2.3 12 -5.6 12 -9 12 C-9 10.68 -9 9.36 -9 8 C-6.03 8 -3.06 8 0 8 C0 5.36 0 2.72 0 0 Z " fill="#328BC9" transform="translate(104,247)"/>
<path d="M0 0 C2.1464753 0.11344376 4.29220592 0.24106345 6.4375 0.375 C8.22994141 0.47941406 8.22994141 0.47941406 10.05859375 0.5859375 C11.02925781 0.72257812 11.99992187 0.85921875 13 1 C13.33 1.66 13.66 2.32 14 3 C10.04 3 6.08 3 2 3 C2.33 4.98 2.66 6.96 3 9 C2.01 8.34 1.02 7.68 0 7 C-0.1875 3.375 -0.1875 3.375 0 0 Z " fill="#7899BE" transform="translate(99,320)"/>
<path d="M0 0 C8.57142857 -0.28571429 8.57142857 -0.28571429 12 2 C11.67 2.99 11.34 3.98 11 5 C12.32 5.33 13.64 5.66 15 6 C10.31817393 6.43892119 6.11029649 5.20486103 2 3 C1.34 2.01 0.68 1.02 0 0 Z " fill="#697CA6" transform="translate(131,325)"/>
<path d="M0 0 C0.33 0.99 0.66 1.98 1 3 C-0.9587043 2.85923685 -2.91696093 2.7122324 -4.875 2.5625 C-5.96554688 2.48128906 -7.05609375 2.40007812 -8.1796875 2.31640625 C-11 2 -11 2 -13 1 C-13 0.34 -13 -0.32 -13 -1 C-11.58566794 -1.2236337 -10.16832382 -1.42826476 -8.75 -1.625 C-7.56664063 -1.79902344 -7.56664063 -1.79902344 -6.359375 -1.9765625 C-3.61793285 -2.00379537 -2.25229848 -1.54471799 0 0 Z " fill="#B1C3DE" transform="translate(117,324)"/>
<path d="M0 0 C2.99693138 0.99897713 4.02709413 1.65130253 6 4 C6 4.66 6 5.32 6 6 C6.66 6 7.32 6 8 6 C8 6.99 8 7.98 8 9 C2.25 7.375 2.25 7.375 0 4 C0 2.68 0 1.36 0 0 Z " fill="#385992" transform="translate(95,325)"/>
<path d="M0 0 C3.63 0 7.26 0 11 0 C11 0.66 11 1.32 11 2 C9.35 2.33 7.7 2.66 6 3 C6 3.66 6 4.32 6 5 C5.01 5.33 4.02 5.66 3 6 C1.5 4.6875 1.5 4.6875 0 3 C0 2.01 0 1.02 0 0 Z " fill="#7C96B7" transform="translate(114,320)"/>
<path d="M0 0 C0.99 0.495 0.99 0.495 2 1 C1.67 2.32 1.34 3.64 1 5 C1.99 5 2.98 5 4 5 C3.67 8.63 3.34 12.26 3 16 C-0.23945545 11.68072606 -0.35373864 10.84798489 -0.1875 5.75 C-0.14689453 4.13351563 -0.14689453 4.13351563 -0.10546875 2.484375 C-0.07066406 1.66453125 -0.03585938 0.8446875 0 0 Z " fill="#2B2D2C" transform="translate(190,220)"/>
<path d="M0 0 C4.29 0 8.58 0 13 0 C13 0.99 13 1.98 13 3 C6.07 2.505 6.07 2.505 -1 2 C-0.67 1.34 -0.34 0.68 0 0 Z " fill="#97AECC" transform="translate(121,326)"/>
<path d="M0 0 C6.93 0.495 6.93 0.495 14 1 C14 1.66 14 2.32 14 3 C9.38 3.33 4.76 3.66 0 4 C0.66 3.67 1.32 3.34 2 3 C2 2.34 2 1.68 2 1 C1.34 0.67 0.68 0.34 0 0 Z " fill="#ADBED6" transform="translate(118,322)"/>
<path d="M0 0 C3.96 0 7.92 0 12 0 C12 1.65 12 3.3 12 5 C11.34 5 10.68 5 10 5 C10 4.01 10 3.02 10 2 C5.545 2.495 5.545 2.495 1 3 C0.67 2.01 0.34 1.02 0 0 Z " fill="#91B6DA" transform="translate(154,322)"/>
<path d="M0 0 C4.29 0 8.58 0 13 0 C10.41451372 2.58548628 8.70461615 2.97641847 5.08203125 3.09765625 C3.46361328 3.08025391 3.46361328 3.08025391 1.8125 3.0625 C0.18248047 3.04896484 0.18248047 3.04896484 -1.48046875 3.03515625 C-2.31191406 3.02355469 -3.14335938 3.01195312 -4 3 C-2.68 2.67 -1.36 2.34 0 2 C0 1.34 0 0.68 0 0 Z " fill="#7E9DDA" transform="translate(114,328)"/>
<path d="M0 0 C0.99 0 1.98 0 3 0 C3 5.94 3 11.88 3 18 C2.67 18 2.34 18 2 18 C2 14.04 2 10.08 2 6 C1.34 6 0.68 6 0 6 C0 4.02 0 2.04 0 0 Z " fill="#181C41" transform="translate(191,292)"/>
<path d="M0 0 C-1 3 -1 3 -2.4375 4.25 C-4.74102233 6.829945 -5.18879403 9.69277566 -6 13 C-6.33 13 -6.66 13 -7 13 C-7.61240935 5.7735697 -7.61240935 5.7735697 -4.625 2 C-2 0 -2 0 0 0 Z " fill="#4479A1" transform="translate(102,233)"/>
<path d="M0 0 C0.66 0 1.32 0 2 0 C2 0.99 2 1.98 2 3 C-4.93 3 -11.86 3 -19 3 C-19 2.67 -19 2.34 -19 2 C-17.71222656 1.93941406 -16.42445313 1.87882812 -15.09765625 1.81640625 C-13.41925841 1.73201753 -11.74087364 1.6473687 -10.0625 1.5625 C-8.78729492 1.50352539 -8.78729492 1.50352539 -7.48632812 1.44335938 C-6.67744141 1.40146484 -5.86855469 1.35957031 -5.03515625 1.31640625 C-3.91185913 1.26141968 -3.91185913 1.26141968 -2.76586914 1.20532227 C-0.97538674 1.18228937 -0.97538674 1.18228937 0 0 Z " fill="#486691" transform="translate(166,331)"/>
<path d="M0 0 C-0.33 0.99 -0.66 1.98 -1 3 C-3.97 3 -6.94 3 -10 3 C-10 2.34 -10 1.68 -10 1 C-6.52674819 -0.1577506 -3.63932552 -0.06866652 0 0 Z " fill="#88A6C6" transform="translate(166,327)"/>
<path d="M0 0 C3.625 0.375 3.625 0.375 7 1 C6.67 2.32 6.34 3.64 6 5 C5.01 5 4.02 5 3 5 C3 4.34 3 3.68 3 3 C1.35 2.67 -0.3 2.34 -2 2 C-1.34 1.34 -0.68 0.68 0 0 Z " fill="#9AB8DC" transform="translate(108,325)"/>
<path d="M0 0 C1.98 0 3.96 0 6 0 C6 0.99 6 1.98 6 3 C3.36 3.33 0.72 3.66 -2 4 C-1.34 2.68 -0.68 1.36 0 0 Z " fill="#ADC4DF" transform="translate(158,324)"/>
<path d="M0 0 C-1.15173355 2.46800047 -2.04783565 4.04783565 -4 6 C-4.70710678 7.64991582 -5.37943989 9.31562256 -6 11 C-6.33 11 -6.66 11 -7 11 C-6.51098901 4.64285714 -6.51098901 4.64285714 -4.0625 1.5625 C-2 0 -2 0 0 0 Z " fill="#3578B1" transform="translate(104,233)"/>
<path d="M0 0 C0.33 0 0.66 0 1 0 C0.125 6.875 0.125 6.875 -1 8 C-2.99958364 8.04080783 -5.00045254 8.04254356 -7 8 C-6.21625 7.4225 -5.4325 6.845 -4.625 6.25 C-2.19952756 4.17102363 -1.14305583 2.90959667 0 0 Z " fill="#2984C2" transform="translate(122,235)"/>
<path d="M0 0 C0.99 0 1.98 0 3 0 C3.33 1.98 3.66 3.96 4 6 C3.01 6 2.02 6 1 6 C0.67 4.02 0.34 2.04 0 0 Z " fill="#8EB5DF" transform="translate(101,323)"/>
<path d="M0 0 C0.99 0 1.98 0 3 0 C3.99 2.64 4.98 5.28 6 8 C2.97984943 6.99328314 1.90683422 6.451644 0 4 C0 2.68 0 1.36 0 0 Z " fill="#37669E" transform="translate(95,321)"/>
<path d="M0 0 C1.9375 0.8125 1.9375 0.8125 4 2 C4.33 2.99 4.66 3.98 5 5 C2.69 4.67 0.38 4.34 -2 4 C-1.34 2.68 -0.68 1.36 0 0 Z " fill="#B8CEEB" transform="translate(113,322)"/>
<path d="M0 0 C0.66 0 1.32 0 2 0 C2 0.66 2 1.32 2 2 C2.66 2 3.32 2 4 2 C4 2.99 4 3.98 4 5 C2.02 4.34 0.04 3.68 -2 3 C-1.34 2.67 -0.68 2.34 0 2 C0 1.34 0 0.68 0 0 Z " fill="#315686" transform="translate(99,329)"/>
<path d="M0 0 C2 1 2 1 2 1 Z " fill="#FFFFFF" transform="translate(348,201)"/>
<path d="" fill="#FFFFFF" transform="translate(0,0)"/>
<path d="" fill="#FFFFFF" transform="translate(0,0)"/>
<path d="" fill="#FFFFFF" transform="translate(0,0)"/>
<path d="" fill="#FFFFFF" transform="translate(0,0)"/>
<path d="" fill="#FFFFFF" transform="translate(0,0)"/>
<path d="" fill="#FFFFFF" transform="translate(0,0)"/>
<path d="" fill="#FFFFFF" transform="translate(0,0)"/>
<path d="" fill="#FFFFFF" transform="translate(0,0)"/>
<path d="" fill="#FFFFFF" transform="translate(0,0)"/>
<path d="" fill="#FFFFFF" transform="translate(0,0)"/>
<path d="" fill="#FFFFFF" transform="translate(0,0)"/>
<path d="" fill="#FFFFFF" transform="translate(0,0)"/>
<path d="" fill="#FFFFFF" transform="translate(0,0)"/>
<path d="" fill="#FFFFFF" transform="translate(0,0)"/>
<path d="" fill="#FFFFFF" transform="translate(0,0)"/>
<path d="" fill="#FFFFFF" transform="translate(0,0)"/>
<path d="" fill="#FFFFFF" transform="translate(0,0)"/>
<path d="" fill="#FFFFFF" transform="translate(0,0)"/>
<path d="" fill="#FFFFFF" transform="translate(0,0)"/>
<path d="" fill="#FFFFFF" transform="translate(0,0)"/>
<path d="" fill="#FFFFFF" transform="translate(0,0)"/>
<path d="" fill="#FFFFFF" transform="translate(0,0)"/>
<path d="" fill="#FFFFFF" transform="translate(0,0)"/>
<path d="" fill="#FFFFFF" transform="translate(0,0)"/>
<path d="" fill="#FFFFFF" transform="translate(0,0)"/>
<path d="" fill="#FFFFFF" transform="translate(0,0)"/>
<path d="" fill="#FFFFFF" transform="translate(0,0)"/>
<path d="" fill="#FFFFFF" transform="translate(0,0)"/>
<path d="" fill="#FFFFFF" transform="translate(0,0)"/>
<path d="" fill="#FFFFFF" transform="translate(0,0)"/>
<path d="" fill="#FFFFFF" transform="translate(0,0)"/>
<path d="" fill="#FFFFFF" transform="translate(0,0)"/>
<path d="" fill="#FFFFFF" transform="translate(0,0)"/>
<path d="" fill="#FFFFFF" transform="translate(0,0)"/>
<path d="" fill="#FFFFFF" transform="translate(0,0)"/>
<path d="" fill="#FFFFFF" transform="translate(0,0)"/>
<path d="" fill="#FFFFFF" transform="translate(0,0)"/>
<path d="" fill="#FFFFFF" transform="translate(0,0)"/>
<path d="" fill="#FFFFFF" transform="translate(0,0)"/>
<path d="" fill="#FFFFFF" transform="translate(0,0)"/>
<path d="" fill="#FFFFFF" transform="translate(0,0)"/>
<path d="" fill="#FFFFFF" transform="translate(0,0)"/>
<path d="" fill="#FFFFFF" transform="translate(0,0)"/>
<path d="" fill="#FFFFFF" transform="translate(0,0)"/>
<path d="" fill="#FFFFFF" transform="translate(0,0)"/>
<path d="" fill="#FFFFFF" transform="translate(0,0)"/>
<path d="" fill="#FFFFFF" transform="translate(0,0)"/>
<path d="" fill="#FFFFFF" transform="translate(0,0)"/>
<path d="" fill="#FFFFFF" transform="translate(0,0)"/>
<path d="" fill="#FFFFFF" transform="translate(0,0)"/>
<path d="" fill="#FFFFFF" transform="translate(0,0)"/>
</svg>
